<svg width="200" height="100" viewBox="0 0 200 100" fill="none" xmlns="http://www.w3.org/2000/svg">
<path d="M49.2907 60.708V63.1972H34.2021V41.125H49.0129V43.6142H37.0162V50.7603H47.4393V53.0934H37.0162V60.708H49.2907Z" fill="#164675"/>
<path d="M52.5215 63.188V41.125H55.3355V60.6988H67.7396V63.188H52.5215Z" fill="#164675"/>
<path d="M82.7999 43.6142H75.1261V63.188H72.312V43.6142H64.6382V41.125H82.7999V43.6142Z" fill="#164675"/>
<path d="M98.4256 45.7641C98.1756 45.4701 97.8424 45.1946 97.4258 44.9282C97.0093 44.6618 96.5372 44.4138 96.0188 44.2026C95.5004 43.9821 94.9265 43.8076 94.3156 43.6698C93.6954 43.532 93.0567 43.4678 92.3902 43.4678C90.6592 43.4678 89.391 43.7892 88.5856 44.4322C87.7803 45.0752 87.3823 45.957 87.3823 47.0776C87.3823 47.6746 87.4934 48.1798 87.7248 48.5656C87.9562 48.9605 88.3172 49.2912 88.8078 49.5759C89.2984 49.8515 89.9094 50.0995 90.6406 50.3016C91.3719 50.5128 92.2421 50.7241 93.2418 50.9537C94.3896 51.2017 95.4264 51.4865 96.3613 51.808C97.287 52.1294 98.0831 52.5244 98.7403 53.002C99.3975 53.4797 99.8974 54.0584 100.24 54.7381C100.582 55.4178 100.758 56.2628 100.758 57.2548C100.758 58.3111 100.545 59.2296 100.129 60.0012C99.7123 60.782 99.1383 61.4249 98.4256 61.9301C97.7035 62.4353 96.8519 62.8119 95.8707 63.0507C94.8895 63.2895 93.825 63.4089 92.6771 63.4089C90.9646 63.4089 89.3447 63.1426 87.8081 62.619C86.2715 62.0863 84.8829 61.3147 83.624 60.3043L84.9662 57.9437C85.2995 58.2928 85.7346 58.651 86.2622 59C86.7991 59.3491 87.4008 59.6705 88.0765 59.9461C88.7523 60.2217 89.4836 60.4513 90.2704 60.6258C91.0572 60.8003 91.8718 60.8922 92.7327 60.8922C94.3156 60.8922 95.5467 60.6166 96.4261 60.0563C97.3055 59.496 97.7406 58.6602 97.7406 57.5396C97.7406 56.915 97.6017 56.3914 97.3148 55.9689C97.0371 55.5464 96.6205 55.179 96.0743 54.8667C95.5282 54.5544 94.8617 54.2788 94.0564 54.04C93.251 53.8012 92.3346 53.5623 91.3164 53.3143C90.1871 53.048 89.1966 52.754 88.345 52.4417C87.4934 52.1294 86.7713 51.762 86.1974 51.3211C85.6235 50.8894 85.1884 50.3567 84.9015 49.7321C84.6052 49.1075 84.4664 48.3635 84.4664 47.4909C84.4664 46.4346 84.6608 45.4977 85.0588 44.6986C85.4569 43.8903 86.0123 43.2106 86.7158 42.6503C87.4286 42.09 88.2709 41.6674 89.2521 41.3919C90.2333 41.1163 91.2979 40.9694 92.4457 40.9694C93.9453 40.9694 95.306 41.199 96.5187 41.6583C97.7313 42.1175 98.8051 42.7237 99.74 43.4953L98.4256 45.7641Z" fill="#164675"/>
<path d="M110.949 58.2288H116.966V46.4258H111.893V42.6139C115.161 42.1087 116.753 41.5392 118.642 40.3819H123.214V58.2288H128.148V63.1981H110.958V58.2288H110.949Z" fill="#164675"/>
<path d="M131.759 60.7456L135.026 57.0715C135.896 57.8614 137.414 58.6514 138.868 58.6514C141.515 58.6514 143.802 56.8511 143.802 51.3858C143.802 45.7002 141.663 44.552 140.099 44.552C138.609 44.552 137.128 45.3052 137.128 47.7209C137.128 49.7325 138.359 50.4581 139.96 50.4581C141.191 50.4581 142.496 49.8795 143.728 48.2996L144.015 52.185C142.422 53.8383 140.136 54.7752 138.572 54.7752C134.656 54.7752 131.462 52.6167 131.462 47.7209C131.462 42.8252 135.415 39.9502 139.951 39.9502C144.551 39.9502 149.448 43.1191 149.448 51.395C149.448 59.6709 144.551 63.6298 139.442 63.6298C136.007 63.6206 133.36 62.252 131.759 60.7456Z" fill="#C12525"/>
<path d="M153.225 57.3655C153.225 54.7017 155.002 53.1219 157.325 51.9645V51.8176C155.4 50.449 154.03 48.7956 154.03 46.4166C154.03 42.3843 157.399 39.941 162.148 39.941C166.749 39.941 169.831 42.3843 169.831 46.2697C169.831 48.3547 168.341 50.0081 166.601 51.0552V51.2022C168.989 52.3871 170.84 54.1874 170.84 57.2093C170.84 60.8834 167.647 63.6114 161.926 63.6114C156.566 63.6206 153.225 61.1039 153.225 57.3655ZM165.045 57.0072C165.045 55.3539 163.157 54.7017 160.149 53.5536C159.204 54.3435 158.594 55.5009 158.594 56.649C158.594 58.4493 160.186 59.3862 162.074 59.3862C163.74 59.377 165.045 58.7341 165.045 57.0072ZM164.759 46.7106C164.759 45.1307 163.74 44.1938 162 44.1938C160.621 44.1938 159.464 44.846 159.464 46.4258C159.464 47.9414 161.019 48.7313 163.453 49.5947C164.323 48.6579 164.759 47.721 164.759 46.7106Z" fill="#164675"/>
<path d="M184.485 50.8164C184.485 49.2733 184.633 46.9678 184.707 45.4154H184.559C183.8 46.7841 182.819 48.1527 181.986 49.5121L179.588 53.3974H192.936V58.0727H173.719V53.7557L182.606 40.3727H190.289V63.1797H184.485V50.8164Z" fill="#164675"/>
<path d="M149.708 70.0852C149.06 70.2229 147.356 70.4893 146.533 70.6179C146.801 70.9945 147.347 71.4078 147.736 71.6099C150.393 73.0153 152.975 74.4022 155.854 75.2014C158.733 76.0097 161.519 75.9913 164.481 75.8902C164.722 75.8811 164.981 75.9454 165.129 76.1566C165.278 76.3679 165.342 76.3954 165.537 76.175C165.731 75.9545 166.185 75.7708 166.472 75.7341C166.749 75.6974 166.814 75.6147 167.055 75.532C167.296 75.4494 167.601 75.3575 167.805 75.5688C168.008 75.7892 167.536 75.8719 167.666 76.0923C167.786 76.3036 168.036 76.175 168.24 76.0556C168.443 75.9362 168.749 75.8076 169.008 75.8168C169.267 75.826 169.425 75.7065 169.425 75.4494C169.425 75.1922 169.665 74.9625 169.878 74.9717C170.091 74.9809 169.961 74.8891 169.998 75.0728C170.036 75.2657 170.128 75.5137 170.397 75.431C170.665 75.3483 170.73 75.7249 170.943 75.6055C171.156 75.4861 170.998 75.2932 170.97 75.0636C170.943 74.8339 171.044 74.6227 171.331 74.54C171.618 74.4573 171.979 74.2645 172.276 74.2093C172.572 74.1542 172.757 74.2369 172.905 74.4482C173.053 74.6594 173.044 74.5951 173.248 74.4757C173.461 74.3563 173.636 74.145 173.84 74.4298C174.044 74.7145 173.757 75.036 173.581 75.1462C173.405 75.2565 173.359 75.2565 173.553 75.284C173.747 75.3116 174.062 75.1279 174.275 75.0176C174.497 74.9074 174.84 74.8615 175.071 75.0176C175.303 75.1738 175.192 75.284 174.942 75.431C174.682 75.578 174.247 75.826 173.979 76.0097C174.46 75.9637 175.006 75.6606 175.33 75.3667C175.654 75.0728 175.83 75.0177 176.191 74.9717C176.552 74.9258 177.08 74.54 177.2 74.3563C177.321 74.1726 176.636 74.5492 176.599 74.5216C176.562 74.4941 176.534 74.4849 176.506 74.4298C176.478 74.3839 176.515 74.2461 176.543 74.2369C177.006 74.0808 177.58 73.9613 178.006 73.8695C178.431 73.7685 178.589 73.8236 178.996 73.6582C179.403 73.4837 179.903 73.1898 180.264 72.8867C179.838 73.0061 179.45 73.2082 179.005 73.3C179.487 72.9418 179.672 72.6295 180.338 72.5652C180.449 72.556 180.57 72.5193 180.727 72.2896C180.884 72.06 181.199 71.8487 181.625 71.7018C182.051 71.5456 182.801 71.1874 183.273 70.9118C183.365 70.8567 183.606 70.7649 183.717 70.8751C182.958 71.3435 182.384 72.0875 181.653 72.5927C181.319 72.8224 180.968 72.8683 180.69 73.1714C181.153 73.153 181.31 72.8867 181.69 72.6662C182.458 72.2161 183.263 71.812 183.985 71.2701C184.013 71.2517 184.05 71.1966 184.013 71.1598C183.976 71.1231 183.911 71.2058 183.874 71.169C183.837 71.1323 183.754 71.1323 183.8 71.0496C183.847 70.9669 183.939 70.8843 184.032 70.8292C184.124 70.7741 184.448 70.5995 184.356 70.4618C184.263 70.324 184.078 70.8016 183.995 70.7373C183.902 70.6822 183.939 70.4801 184.124 70.3607C185.448 69.5065 186.716 68.4043 187.855 67.2837C187.92 67.2194 188.012 67.1 188.058 67.1459C188.382 67.4949 187.91 67.7521 187.92 68.1103C187.929 68.4594 188.345 67.7521 188.41 67.9726C188.466 68.193 188.244 68.4043 188.058 68.588C186.124 70.4434 184.013 71.913 181.634 73.2173C179.949 74.145 178.135 75.0819 176.349 75.8443C174.562 76.6067 172.433 77.268 170.656 77.7549C168.878 78.2509 167.073 78.6734 165.435 78.8755C163.426 79.1143 161.89 79.3072 159.973 79.1694C158.057 79.0224 156.437 78.8295 154.54 78.2141C150.809 77.0017 147.495 74.788 144.404 72.4274C144.422 73.9705 145.163 77.0108 144.728 78.2784C144.292 79.5552 143.219 77.9845 142.7 76.6434C142.182 75.3024 140.756 71.2884 140.664 69.1391C140.599 67.7062 140.257 67.201 142.756 67.348C144.107 67.4214 148.606 67.7429 150.495 68.1746C151.152 68.3216 151.92 68.2757 152.475 68.6063C153.031 68.9278 152.92 69.3412 152.17 69.5249C151.42 69.6994 150.744 69.8647 149.708 70.0852ZM185.902 70.0301C186.059 69.9382 186.059 69.8739 186.327 69.681C186.596 69.4881 187.29 68.9921 187.438 68.5788C187.086 68.79 186.503 69.3963 186.244 69.5983C185.985 69.8004 185.939 69.8004 185.809 69.929C185.689 70.0576 185.402 70.0852 185.504 70.2229C185.605 70.3699 185.744 70.1219 185.902 70.0301ZM184.578 70.8935C184.67 70.8567 185.059 70.7741 184.967 70.6179C184.874 70.4709 184.633 70.7924 184.55 70.8384C184.467 70.8843 184.171 70.9761 184.254 71.0955C184.337 71.1966 184.495 70.9302 184.578 70.8935ZM178.144 74.5492C178.098 74.5859 178.163 74.687 178.218 74.6594C178.857 74.3288 179.477 73.9613 180.107 73.6215C179.385 73.8236 178.755 74.1083 178.144 74.5492Z" fill="#C12525"/>
<path d="M174.664 74.2369C174.738 73.7409 175.377 73.796 175.608 73.5296C175.839 73.2632 175.062 73.3918 175.386 73.1898C175.701 72.9877 175.988 72.8591 176.413 72.9509C176.839 73.0428 177.413 73.0336 177.802 72.7764C178.191 72.5192 178.737 72.2529 179.089 72.1426C179.45 72.0324 179.274 72.0508 179.468 71.8487C179.663 71.6466 180.079 71.4997 180.301 71.4905C180.523 71.4813 180.486 71.5089 180.579 71.6099C180.671 71.7017 180.505 71.7936 180.477 71.8212C180.449 71.8579 180.44 71.8579 180.422 71.8671C179.968 72.1978 179.459 72.1886 179.042 72.5927C178.616 72.9969 178.052 73.1163 177.487 73.2724C176.923 73.4286 176.728 73.7684 176.145 74.0256C175.553 74.2736 174.692 74.6594 174.025 74.8798C174.034 74.4849 174.266 74.2553 173.923 73.9338C173.877 73.8878 173.997 73.7684 174.09 73.7501C174.183 73.7317 174.303 73.6398 174.386 73.7776C174.46 73.9246 174.553 74.0991 174.664 74.2369Z" fill="#C12525"/>
<path d="M182.125 70.7185C182.255 71.0584 181.366 71.3707 181.116 71.435C180.857 71.4993 180.848 71.3707 180.885 71.187C180.922 71.0033 181.153 70.7645 181.199 70.645C181.246 70.5256 181.449 70.4797 181.449 70.544C181.505 71.2605 181.995 70.3879 182.125 70.7185Z" fill="#C12525"/>
<path d="M189.16 65.7872C189.234 65.8423 188.78 66.4118 188.734 66.5312C188.688 66.6598 188.586 66.6965 188.512 66.6139C188.438 66.5312 188.438 66.5312 188.521 66.4026C188.605 66.274 189.067 65.7229 189.16 65.7872Z" fill="#C12525"/>
<path d="M189.197 66.8078C189.095 67.1293 188.928 67.3957 188.752 67.6804C188.789 67.3038 188.91 67.0558 189.197 66.8078Z" fill="#C12525"/>
<path d="M174.488 74.927C174.516 74.8536 174.59 74.8627 174.655 74.8444C174.719 74.8352 174.821 74.8536 174.803 74.9362C174.784 75.0097 174.701 75.0281 174.627 75.0465C174.553 75.0648 174.46 75.0005 174.488 74.927Z" fill="#C12525"/>
<path d="M183.8 71.2153C183.782 71.2888 183.615 71.3164 183.569 71.2337C183.523 71.151 183.643 71.0867 183.708 71.0959C183.773 71.1051 183.828 71.1418 183.8 71.2153Z" fill="#C12525"/>
<path d="M169.684 75.0096C169.693 74.9725 169.731 74.9261 169.777 74.9354C169.824 74.9539 169.787 75.0374 169.749 75.0466C169.712 75.0652 169.675 75.0374 169.684 75.0096Z" fill="#C12525"/>
<path d="M176.367 74.5951C176.339 74.6411 176.238 74.6686 176.21 74.6043C176.173 74.5492 176.256 74.4849 176.312 74.4941C176.349 74.5033 176.395 74.5492 176.367 74.5951Z" fill="#C12525"/>
<path d="M175.988 74.7988C175.979 74.7988 175.951 74.7802 175.951 74.771C175.96 74.7524 176.007 74.7432 176.025 74.7432C176.044 74.7432 176.063 74.7617 176.063 74.771C176.053 74.7802 176.007 74.7988 175.988 74.7988Z" fill="#C12525"/>
<path d="M35.7848 37.1296C36.3495 36.9 37.8213 36.303 38.6544 36.2203C38.2656 36.6428 36.5994 37.5981 36.1829 37.9471C37.8491 39.132 39.9318 38.8013 40.9778 37.2766C41.5795 36.404 42.0609 35.4487 42.6255 34.4843C41.4685 34.2363 40.3021 33.9515 39.1913 33.9791C37.2104 34.0342 35.5812 35.9172 35.7848 37.1296Z" fill="#164675"/>
<path d="M31.6473 36.7532C29.2406 36.7257 25.3435 38.0851 24.1586 40.4916C23.7606 38.8658 21.8167 37.8463 20.1782 37.6901C22.6035 41.5112 25.9452 54.0491 18.2065 63.1241C21.8259 63.2159 28.9814 63.1976 32.2305 63.1241C25.6953 56.722 24.7881 43.4493 31.6473 36.7532Z" fill="#164675"/>
<path d="M19.1596 38.0294C18.1969 38.4979 17.2434 38.9571 16.29 39.4164C17.4748 39.6368 18.5023 39.1041 19.6317 39.2235C18.9929 41.9423 17.299 42.9527 14.7348 42.1995C13.6611 41.8872 12.5965 41.5106 11.4302 41.1248C12.3651 39.9032 13.1982 38.7367 14.1054 37.6345C15.281 36.2107 18.1321 36.3393 19.1596 38.0294Z" fill="#164675"/>
<path d="M30.6285 28.1461C31.1376 27.4021 31.9985 25.9509 32.341 25.4457C32.3132 25.7029 31.9614 27.5858 31.7022 28.4768C34.3497 28.3666 35.7289 26.9888 35.3031 24.5639C35.0995 23.3974 34.8403 22.2308 34.5996 21C33.3777 21.7073 32.1928 22.3319 31.0635 23.0575C29.1937 24.27 28.8049 27.5583 30.6285 28.1461Z" fill="#164675"/>
<path d="M21.4179 28.1461C20.9088 27.4021 20.0479 25.9509 19.7054 25.4457C19.7332 25.7029 20.0849 27.5858 20.3441 28.4768C17.6967 28.3666 16.3174 26.9888 16.7432 24.5639C16.9469 23.3974 17.2061 22.2308 17.4467 21C18.6686 21.7073 19.8535 22.3319 20.9828 23.0575C22.8527 24.27 23.2415 27.5583 21.4179 28.1461Z" fill="#164675"/>
<path d="M24.2038 36.6418C24.5833 36.899 25.111 37.1745 25.148 36.9633C25.1943 36.7061 25.2776 34.0056 25.3331 32.9126C25.6108 33.5555 25.8978 36.2836 26.2866 36.9357C28.5545 35.5396 28.9618 33.6933 27.4437 31.6634C26.7587 30.7449 25.9996 29.8814 25.2128 28.9354C24.4815 30.0743 23.7039 31.149 23.0745 32.3064C22.2043 33.877 22.7227 35.6314 24.2038 36.6418Z" fill="#164675"/>
<path d="M24.7043 27.6235C25.1301 28.0185 25.3708 28.1011 25.4911 27.4031C25.63 26.5764 25.8336 25.7589 26.0095 24.9414C26.1391 25.4558 26.1576 25.9702 26.1854 26.4754C26.2131 27.0081 26.028 27.5592 26.2409 28.092C28.1293 27.302 28.6569 25.961 27.759 24.2433C27.3517 23.4718 26.8796 22.7278 26.4075 21.9103C25.7133 22.6818 25.0005 23.4075 24.3803 24.1974C23.5287 25.2996 23.7046 26.6866 24.7043 27.6235Z" fill="#164675"/>
<path d="M37.2658 32.325C37.7009 31.0023 38.0064 29.9919 38.3952 28.5958C37.5713 28.6417 34.9979 28.9448 34.2389 29.1744C31.9339 29.8633 30.5177 31.3422 30.999 33.6844C31.9617 33.2619 32.6837 32.7199 34.0537 32.2791C33.1651 33.2527 32.406 33.9691 31.721 34.7315C34.7387 35.6868 36.4698 34.7315 37.2658 32.325Z" fill="#164675"/>
<path d="M8.8105 35.624C8.18104 34.6228 7.63489 33.5573 7.0332 32.4826C7.72746 32.354 8.31989 32.2438 8.90306 32.1428C9.54178 32.0325 10.1805 31.8948 10.8192 31.8305C12.8557 31.6284 14.3645 33.1439 14.1887 35.2014C13.3093 35.0453 12.5965 34.7422 11.3746 34.6595C12.3095 35.2933 13.0131 35.7617 13.7351 36.2486C11.9485 37.709 9.95833 37.4518 8.8105 35.624Z" fill="#164675"/>
<path d="M19.7985 34.9248C19.4375 34.0706 18.484 33.5838 18.1878 32.4356C19.1875 32.6193 19.6504 33.2715 20.2336 33.7215C20.7242 34.0981 20.9556 34.0063 21.1222 33.4276C21.6221 31.6732 20.4927 29.4871 18.6692 29.0279C17.1418 28.6421 15.5589 28.4584 13.939 28.1736C14.1796 29.6984 14.337 31.0578 14.624 32.3989C15.1609 34.8697 17.5398 36.0087 19.7985 34.9248Z" fill="#164675"/>
</svg>
