<svg width="39" height="46" viewBox="0 0 39 46" fill="none" xmlns="http://www.w3.org/2000/svg">
<path d="M30.9316 17.3527C31.5391 17.1057 33.1225 16.4634 34.0188 16.3744C33.6005 16.829 31.8079 17.8567 31.3598 18.2322C33.1524 19.5069 35.3931 19.1512 36.5184 17.5108C37.1657 16.5721 37.6836 15.5444 38.291 14.5068C37.0462 14.24 35.7914 13.9336 34.5964 13.9633C32.4652 14.0226 30.7125 16.0483 30.9316 17.3527Z" fill="white"/>
<path d="M26.4804 16.9478C23.8912 16.9181 19.6986 18.3806 18.4239 20.9696C17.9956 19.2206 15.9043 18.1237 14.1416 17.9557C16.7508 22.0665 20.3459 35.5551 12.0204 45.3183C15.9143 45.4171 23.6123 45.3974 27.1078 45.3183C20.077 38.4307 19.1011 24.1516 26.4804 16.9478Z" fill="white"/>
<path d="M13.0459 18.3208C12.0102 18.8248 10.9844 19.3188 9.95867 19.8129C11.2334 20.0501 12.3388 19.477 13.5537 19.6054C12.8666 22.5304 11.0442 23.6174 8.28561 22.8071C7.1304 22.4711 5.98516 22.066 4.73036 21.6509C5.73619 20.3367 6.63247 19.0817 7.60842 17.8959C8.87317 16.3642 11.9404 16.5025 13.0459 18.3208Z" fill="white"/>
<path d="M25.3847 7.68801C25.9324 6.88759 26.8585 5.32627 27.227 4.78277C27.1971 5.05946 26.8187 7.08522 26.5399 8.04376C29.388 7.92517 30.8719 6.44291 30.4138 3.83413C30.1947 2.57914 29.9158 1.32416 29.6569 0C28.3424 0.760896 27.0677 1.43286 25.8527 2.21352C23.8411 3.51791 23.4228 7.05558 25.3847 7.68801Z" fill="white"/>
<path d="M15.4758 7.68801C14.9281 6.88759 14.0019 5.32627 13.6334 4.78277C13.6633 5.05946 14.0417 7.08522 14.3206 8.04376C11.4724 7.92517 9.98855 6.44291 10.4466 3.83413C10.6657 2.57914 10.9446 1.32416 11.2035 0C12.5181 0.760896 13.7928 1.43286 15.0077 2.21352C17.0194 3.51791 17.4376 7.05558 15.4758 7.68801Z" fill="white"/>
<path d="M18.4729 16.8279C18.8812 17.1046 19.4488 17.4011 19.4887 17.1738C19.5385 16.8971 19.6281 13.9918 19.6878 12.8159C19.9866 13.5076 20.2953 16.4425 20.7136 17.1441C23.1535 15.6421 23.5916 13.6559 21.9584 11.472C21.2215 10.4838 20.4049 9.55493 19.5584 8.53711C18.7716 9.76245 17.9351 10.9186 17.2579 12.1637C16.3218 13.8535 16.8795 15.7409 18.4729 16.8279Z" fill="white"/>
<path d="M19.011 7.12574C19.4691 7.55065 19.7281 7.63959 19.8575 6.88857C20.0069 5.99921 20.226 5.11974 20.4152 4.24026C20.5546 4.79364 20.5746 5.34702 20.6044 5.89052C20.6343 6.46366 20.4351 7.05656 20.6642 7.6297C22.6958 6.77987 23.2634 5.33714 22.2974 3.48925C21.8592 2.65918 21.3513 1.85876 20.8434 0.979279C20.0965 1.80935 19.3297 2.59 18.6625 3.43984C17.7463 4.62565 17.9355 6.1178 19.011 7.12574Z" fill="white"/>
<path d="M32.5252 12.1838C32.9933 10.7608 33.3219 9.67378 33.7402 8.17175C32.8538 8.22116 30.0853 8.54726 29.2687 8.79431C26.789 9.53544 25.2653 11.1264 25.7832 13.6463C26.8189 13.1917 27.5957 12.6087 29.0695 12.1343C28.1135 13.1818 27.2969 13.9526 26.56 14.7728C29.8065 15.8005 31.6688 14.7728 32.5252 12.1838Z" fill="white"/>
<path d="M1.91206 15.7329C1.23487 14.6558 0.647314 13.5095 0 12.3533C0.746901 12.215 1.38425 12.0964 2.01165 11.9877C2.6988 11.8691 3.38595 11.7209 4.0731 11.6517C6.26401 11.4343 7.88727 13.0648 7.69806 15.2783C6.75198 15.1103 5.98516 14.7842 4.67062 14.6953C5.67644 15.3771 6.4333 15.8811 7.21008 16.4048C5.28805 17.976 3.14694 17.6994 1.91206 15.7329Z" fill="white"/>
<path d="M13.733 14.9808C13.3446 14.0618 12.3189 13.538 12.0002 12.3028C13.0757 12.5005 13.5737 13.2021 14.2011 13.6863C14.7289 14.0914 14.9778 13.9926 15.1571 13.3701C15.6949 11.4826 14.4799 9.13077 12.5181 8.63669C10.8749 8.22165 9.17194 8.02402 7.42917 7.71768C7.68809 9.35805 7.85739 10.8206 8.16611 12.2633C8.74371 14.9215 11.3031 16.1468 13.733 14.9808Z" fill="white"/>
</svg>
