<svg width="13" height="12" viewBox="0 0 13 12" fill="none" xmlns="http://www.w3.org/2000/svg">
<rect x="0.714355" width="11.5" height="11.5" rx="5.75" fill="black" className="fill-primary1"/>
<path d="M7.08262 8.90687L4.40887 6.22833C4.31962 6.13856 4.26953 6.01711 4.26953 5.89052C4.26953 5.76393 4.31962 5.64249 4.40887 5.55271L7.08262 2.87417C7.14964 2.80659 7.23527 2.7605 7.32858 2.74178C7.4219 2.72306 7.51868 2.73256 7.60658 2.76905C7.69448 2.80555 7.76952 2.86739 7.82213 2.94671C7.87475 3.02602 7.90255 3.1192 7.90199 3.21438V8.56667C7.90255 8.66184 7.87475 8.75502 7.82213 8.83434C7.76952 8.91365 7.69448 8.97549 7.60658 9.01199C7.51868 9.04849 7.4219 9.05798 7.32858 9.03926C7.23527 9.02054 7.14964 8.97445 7.08262 8.90687Z" fill="white"/>
</svg>