<?xml version="1.0" encoding="UTF-8"?>
<!DOCTYPE svg PUBLIC "-//W3C//DTD SVG 1.1//EN" "http://www.w3.org/Graphics/SVG/1.1/DTD/svg11.dtd">
<svg xmlns="http://www.w3.org/2000/svg" version="1.1" width="313px" height="313px" style="shape-rendering:geometricPrecision; text-rendering:geometricPrecision; image-rendering:optimizeQuality; fill-rule:evenodd; clip-rule:evenodd" xmlns:xlink="http://www.w3.org/1999/xlink">
<g><path style="opacity:0.992" fill="#fefefe" d="M 138.5,-0.5 C 150.167,-0.5 161.833,-0.5 173.5,-0.5C 253.022,13.6893 299.355,60.6893 312.5,140.5C 312.5,151.5 312.5,162.5 312.5,173.5C 298.527,252.139 252.194,298.473 173.5,312.5C 161.833,312.5 150.167,312.5 138.5,312.5C 71.2694,301.775 26.7694,264.108 5,199.5C 2.82092,190.763 0.98759,182.097 -0.5,173.5C -0.5,161.167 -0.5,148.833 -0.5,136.5C 14.4004,58.9329 60.7337,13.2662 138.5,-0.5 Z"/></g>
<g><path style="opacity:1" fill="#1d4978" d="M 115.5,42.5 C 122.766,45.8008 129.766,49.6341 136.5,54C 143.182,60.0637 145.349,67.5637 143,76.5C 141.649,78.019 140.149,79.3523 138.5,80.5C 134.856,76.5596 131.69,72.2262 129,67.5C 129.623,72.4594 130.456,77.4594 131.5,82.5C 116.11,81.6097 109.943,73.6097 113,58.5C 114.288,53.2274 115.122,47.894 115.5,42.5 Z"/></g>
<g><path style="opacity:1" fill="#1e4a78" d="M 206.5,42.5 C 207.496,42.4142 208.329,42.7476 209,43.5C 211.316,52.3756 212.316,61.3756 212,70.5C 208.652,78.6576 202.485,82.6576 193.5,82.5C 194.156,77.0685 194.989,71.7352 196,66.5C 193.068,71.3768 189.901,76.0435 186.5,80.5C 180.856,76.5928 179.022,71.2595 181,64.5C 182.676,59.8222 185.509,55.9889 189.5,53C 195.566,49.9761 201.232,46.4761 206.5,42.5 Z"/></g>
<g><path style="opacity:1" fill="#1e4a78" d="M 163.5,47.5 C 168.941,53.0496 172.275,59.7163 173.5,67.5C 173.281,73.8989 170.114,78.2323 164,80.5C 163.667,75.5 163.333,70.5 163,65.5C 162.667,65.1667 162.333,64.8333 162,64.5C 160.786,69.1137 159.786,73.7804 159,78.5C 158.586,78.9574 158.086,79.2907 157.5,79.5C 151.125,74.8748 149.291,68.8748 152,61.5C 156.046,56.9596 159.879,52.2929 163.5,47.5 Z"/></g>
<g><path style="opacity:1" fill="#1b4977" d="M 97.5,81.5 C 108.135,82.2867 118.468,84.4534 128.5,88C 136.343,94.2611 138.51,102.094 135,111.5C 134.282,112.451 133.449,112.617 132.5,112C 129.268,109.097 125.768,106.597 122,104.5C 121.5,104.833 121,105.167 120.5,105.5C 122.808,108.975 125.308,112.308 128,115.5C 128.617,116.449 128.451,117.282 127.5,118C 114.092,121.71 105.259,116.877 101,103.5C 100.087,96.1038 98.92,88.7704 97.5,81.5 Z"/></g>
<g><path style="opacity:1" fill="#1d4a78" d="M 218.5,83.5 C 221.898,83.1796 225.232,83.513 228.5,84.5C 225.881,94.1935 222.381,103.527 218,112.5C 210.54,118.847 202.373,120.013 193.5,116C 196.934,111.81 200.6,107.81 204.5,104C 199.221,105.269 194.221,107.435 189.5,110.5C 187.957,105.598 188.457,100.931 191,96.5C 198.559,88.5997 207.726,84.2664 218.5,83.5 Z"/></g>
<g><path style="opacity:1" fill="#1b4977" d="M 161.5,118.5 C 160.992,114.803 160.326,111.136 159.5,107.5C 159.44,106.957 159.107,106.624 158.5,106.5C 157.504,112.798 157.17,119.132 157.5,125.5C 157.5,126.5 157.5,127.5 157.5,128.5C 145.773,124.042 141.939,115.709 146,103.5C 150,97.5 154,91.5 158,85.5C 164.061,91.9606 169.394,98.9606 174,106.5C 176.246,116.005 173.079,123.005 164.5,127.5C 162.736,124.785 161.736,121.785 161.5,118.5 Z"/></g>
<g><path style="opacity:1" fill="#1d4a78" d="M 77.5,100.5 C 86.7531,99.2108 93.5864,102.544 98,110.5C 98.4974,113.146 98.6641,115.813 98.5,118.5C 94.1929,117.502 89.8596,117.002 85.5,117C 89.0506,119.268 92.3839,121.768 95.5,124.5C 86.0493,131.971 77.5493,130.971 70,121.5C 66.8333,115.833 63.6667,110.167 60.5,104.5C 66.289,103.113 71.9557,101.78 77.5,100.5 Z"/></g>
<g><path style="opacity:1" fill="#527598" d="M 159.5,107.5 C 158.527,109.948 158.194,112.615 158.5,115.5C 158.813,119.042 158.479,122.375 157.5,125.5C 157.17,119.132 157.504,112.798 158.5,106.5C 159.107,106.624 159.44,106.957 159.5,107.5 Z"/></g>
<g><path style="opacity:1" fill="#1d4a78" d="M 228.5,112.5 C 235.938,112.303 243.271,112.969 250.5,114.5C 248.024,123.468 243.024,130.635 235.5,136C 231.259,137.457 226.926,137.791 222.5,137C 220.445,136.313 218.779,135.146 217.5,133.5C 221.361,130.472 225.361,127.639 229.5,125C 224.484,125.257 219.818,126.757 215.5,129.5C 215.167,128.667 214.833,127.833 214.5,127C 216.715,119.74 221.382,114.906 228.5,112.5 Z"/></g>
<g><path style="opacity:1" fill="#c6d1dd" d="M 159.5,107.5 C 160.326,111.136 160.992,114.803 161.5,118.5C 160.9,117.1 159.9,116.1 158.5,115.5C 158.194,112.615 158.527,109.948 159.5,107.5 Z"/></g>
<g><path style="opacity:1" fill="#1d4978" d="M 111.5,140.5 C 110.957,140.56 110.624,140.893 110.5,141.5C 112.636,142.793 114.636,142.793 116.5,141.5C 120.119,140.756 123.785,140.423 127.5,140.5C 124.888,154.606 116.554,160.106 102.5,157C 96.3476,155.133 90.3476,152.966 84.5,150.5C 88.1395,145.027 91.9729,139.694 96,134.5C 105.608,124.007 115.442,123.84 125.5,134C 120.932,136.452 116.265,138.618 111.5,140.5 Z"/></g>
<g><path style="opacity:1" fill="#194776" d="M 194.5,268.5 C 170.006,269.498 145.339,269.831 120.5,269.5C 140.887,243.492 149.387,213.826 146,180.5C 144.026,163.765 139.193,147.931 131.5,133C 141.046,133.445 148.046,137.945 152.5,146.5C 162.458,133.854 175.458,127.687 191.5,128C 171.605,150.72 163.772,177.22 168,207.5C 170.167,230.866 179,251.2 194.5,268.5 Z"/></g>
<g><path style="opacity:1" fill="#7c97b1" d="M 111.5,140.5 C 112.919,141.451 114.585,141.784 116.5,141.5C 114.636,142.793 112.636,142.793 110.5,141.5C 110.624,140.893 110.957,140.56 111.5,140.5 Z"/></g>
<g><path style="opacity:1" fill="#c8d3de" d="M 194.5,268.5 C 195.043,268.56 195.376,268.893 195.5,269.5C 170.337,270.829 145.337,270.829 120.5,269.5C 145.339,269.831 170.006,269.498 194.5,268.5 Z"/></g>
</svg>
